<?xml version="1.0" encoding="UTF-8" standalone="no"?>
<svg
   version="1.1"
   width="200"
   height="200"
   viewBox="930 285.5 200 200"
   id="svg1"
   xmlns="http://www.w3.org/2000/svg"
   xmlns:svg="http://www.w3.org/2000/svg">
  <defs
     id="defs1" />
  <g
     fill="none"
     fill-rule="nonzero"
     stroke="none"
     stroke-width="none"
     stroke-linecap="butt"
     stroke-linejoin="miter"
     stroke-miterlimit="10"
     stroke-dasharray="none"
     stroke-dashoffset="0"
     font-family="none"
     font-weight="none"
     font-size="none"
     text-anchor="none"
     style="mix-blend-mode:normal;fill:#ffffff;fill-opacity:1"
     id="g1"
     transform="translate(-161.3669,-247.04021)">
    <g
       id="stage"
       style="fill:#ffffff;fill-opacity:1">
      <g
         id="layer1 1"
         style="fill:#ffffff;fill-opacity:1">
        <path
           d="m 1249.9144,588.54021 h -13.6037 c -2.8829,0 -5.2253,2.34236 -5.2253,5.22526 v 66.17164 h -11.3063 c -6.2163,0 -11.3064,-5.09013 -11.3064,-11.30639 v -54.86525 c 0,-2.8829 -2.3424,-5.22526 -5.2253,-5.22526 h -13.6037 c -2.8829,0 -5.2253,2.34236 -5.2253,5.22526 v 58.96438 c 0,18.42355 20.6308,29.72994 35.4507,29.72994 9.91,0 16.0812,-4.8649 16.0812,-12.65775 v -5.00003 h 4.1893 c 7.2973,0 15.0451,-7.74781 15.0451,-15.0902 v -55.94634 c -0.045,-2.8829 -2.3874,-5.22526 -5.2703,-5.22526 z m -18.829,81.30688 c 0,2.92794 -1.4414,7.79284 -11.2613,7.79284 -18.9641,0 -30.5858,-14.5046 -30.5858,-24.86504 0,0 -0.045,-33.60383 0,-58.10851 0,-0.72073 0.5856,-1.26127 1.3063,-1.26127 h 11.8019 c 0.7207,0 1.3063,0.58559 1.3063,1.30631 v 54.00939 c 0,8.91898 7.2523,16.17129 16.1713,16.17129 h 11.3064 z m 19.2344,-20.13528 c 0,4.59463 -5.6307,10.27034 -10.1802,10.27034 h -4.1893 v -65.31577 c 0,-0.72073 0.5856,-1.26127 1.3064,-1.26127 h 8.2883 3.5135 c 0.7208,0 1.3064,0.58559 1.3064,1.30631 v 55.00039 z"
           id="CompoundPath 1"
           fill="#0077b6"
           stroke-width="0.45045"
           style="fill:#ffffff;fill-opacity:1" />
        <path
           d=""
           id="item5695 1"
           fill="none"
           stroke-width="1"
           style="fill:#ffffff;fill-opacity:1" />
        <path
           d="m 1175.8944,659.95961 h -11.1469 c -6.2162,0 -11.3064,-5.09013 -11.3064,-11.30639 v -54.86525 c 0,-2.8829 -2.3423,-5.22526 -5.2252,-5.22526 h -13.6037 c -2.8829,0 -5.2253,2.34236 -5.2253,5.22526 -0.045,24.3245 0,58.91933 0,58.91933 v 5e-5 c 0,18.42355 20.6308,29.72994 35.4507,29.72994 9.91,0 16.0812,-4.8649 16.0812,-12.65775 l -0.5737,-9.24961 m -45.5669,-65.35966 c 0,-0.72073 0.014,-1.8327 0.7349,-1.8327 h 11.8019 c 0.7207,0 1.3063,0.58559 1.3063,1.30631 v 53.96434 c 0,8.91899 7.2523,16.17129 16.1713,16.17129 h 11.3064 v 5.00003 c 0,2.92795 -1.4415,7.79285 -11.2614,7.79285 -18.9641,0 -30.5858,-14.5046 -30.5858,-24.86504 -0.045,0 -0.045,-33.78402 -0.045,-58.10851 z"
           id="path1"
           fill="#0077b6"
           stroke-width="0.45045"
           style="fill:#ffffff;fill-opacity:1" />
      </g>
    </g>
  </g>
</svg>
